<?xml version="1.0" standalone="no"?><!DOCTYPE svg PUBLIC "-//W3C//DTD SVG 1.1//EN" "http://www.w3.org/Graphics/SVG/1.1/DTD/svg11.dtd"><svg t="1634204964203" class="icon" viewBox="0 0 1024 1024" version="1.1" xmlns="http://www.w3.org/2000/svg" p-id="1550" xmlns:xlink="http://www.w3.org/1999/xlink" width="300" height="300"><defs><style type="text/css"></style></defs><path d="M568.88 421.173l166.58-166.58 33.94 33.94-166.58 166.581z" fill="#FFFFFF" p-id="1551"></path><path d="M539.267 484.666l0.058-48 192.05 0.235-0.059 48z" fill="#FFFFFF" p-id="1552"></path><path d="M539.097 292.671l48-0.059 0.235 192.05-48 0.059zM254.597 735.473l166.58-166.58 33.941 33.941-166.58 166.58z" fill="#FFFFFF" p-id="1553"></path><path d="M292.605 587.091l0.059-48 192.05 0.235-0.059 48z" fill="#FFFFFF" p-id="1554"></path><path d="M436.659 539.346l48-0.059 0.234 192.05-48 0.059zM855.95 651.77h48v252.05h-48z" fill="#FFFFFF" p-id="1555"></path><path d="M651.81 855.91h252.05v48H651.81zM119.61 119.67h48v252.05h-48z" fill="#FFFFFF" p-id="1556"></path><path d="M119.7 119.58h252.05v48H119.7zM651.81 119.58h252.05v48H651.81z" fill="#FFFFFF" p-id="1557"></path><path d="M855.95 119.67h48v252.05h-48zM119.7 855.91h252.05v48H119.7z" fill="#FFFFFF" p-id="1558"></path><path d="M119.61 651.77h48v252.05h-48z" fill="#FFFFFF" p-id="1559"></path></svg>