<?xml version="1.0" standalone="no"?><!DOCTYPE svg PUBLIC "-//W3C//DTD SVG 1.1//EN" "http://www.w3.org/Graphics/SVG/1.1/DTD/svg11.dtd"><svg t="1634204938261" class="icon" viewBox="0 0 1025 1024" version="1.1" xmlns="http://www.w3.org/2000/svg" p-id="1232" xmlns:xlink="http://www.w3.org/1999/xlink" width="300.29296875" height="300"><defs><style type="text/css"></style></defs><path d="M401.769949 803.539897A401.769949 401.769949 0 0 1 245.182687 31.93556a401.769949 401.769949 0 0 1 313.174524 739.668777 399.70959 399.70959 0 0 1-156.587262 31.93556z m0-721.125549C225.609279 82.414348 82.414348 225.609279 82.414348 401.769949s143.19493 319.3556 319.355601 319.3556 319.3556-143.19493 319.3556-319.3556S577.930619 82.414348 401.769949 82.414348z" fill="#ffffff" p-id="1233"></path><path d="M918.919985 1023.99828a103.017936 103.017936 0 0 1-73.142734-29.875202L588.232412 736.578239a41.521379 41.521379 0 0 1 58.720223-58.720223l256.51466 258.575018a20.603587 20.603587 0 0 0 28.845022 0l3.090538-3.090538a20.603587 20.603587 0 0 0 0-28.845022L678.888195 645.922456a41.521379 41.521379 0 0 1 58.720224-58.720223l256.514659 258.575018a103.017936 103.017936 0 0 1 0 145.255289l-3.090538 3.090538a103.017936 103.017936 0 0 1-72.112555 29.875202z" fill="#ffffff" p-id="1234"></path><path d="M816.932229 929.221779a41.207174 41.207174 0 0 1-28.845022-70.052196l75.203093-74.172914a41.521379 41.521379 0 0 1 58.720223 58.720223l-74.172913 75.203093a41.207174 41.207174 0 0 1-30.905381 10.301794z" fill="#ffffff" p-id="1235"></path></svg>